<svg width="26" height="25" viewBox="0 0 26 25" fill="none" xmlns="http://www.w3.org/2000/svg">
<path d="M25.4664 22.6094C23.8597 19.7895 21.3509 17.5923 18.3438 16.3715C19.8392 15.2499 20.9438 13.6863 21.5011 11.902C22.0585 10.1178 22.0403 8.2034 21.4492 6.43006C20.8581 4.65672 19.724 3.11431 18.2076 2.02133C16.6912 0.928355 14.8693 0.34021 13 0.34021C11.1307 0.34021 9.30886 0.928355 7.79243 2.02133C6.276 3.11431 5.14191 4.65672 4.5508 6.43006C3.95968 8.2034 3.94152 10.1178 4.49887 11.902C5.05622 13.6863 6.16084 15.2499 7.65626 16.3715C4.64913 17.5923 2.14029 19.7895 0.5336 22.6094C0.434043 22.7694 0.367689 22.9479 0.338483 23.1341C0.309276 23.3204 0.317813 23.5106 0.363586 23.6935C0.409358 23.8763 0.491433 24.0481 0.604929 24.1987C0.718426 24.3492 0.861028 24.4753 1.02426 24.5696C1.18749 24.6639 1.36801 24.7245 1.5551 24.7476C1.74219 24.7708 1.93202 24.7561 2.11331 24.7044C2.2946 24.6527 2.46365 24.5651 2.6104 24.4468C2.75716 24.3284 2.87863 24.1818 2.96758 24.0156C5.09102 20.3453 8.84102 18.1562 13 18.1562C17.159 18.1562 20.909 20.3465 23.0324 24.0156C23.2252 24.3256 23.531 24.5485 23.8851 24.6371C24.2393 24.7258 24.614 24.6732 24.9301 24.4906C25.2462 24.308 25.4789 24.0096 25.5789 23.6585C25.679 23.3074 25.6387 22.9312 25.4664 22.6094ZM6.90626 9.24998C6.90626 8.04475 7.26365 6.86658 7.93324 5.86447C8.60283 4.86236 9.55454 4.08131 10.668 3.62008C11.7815 3.15886 13.0068 3.03819 14.1888 3.27332C15.3709 3.50844 16.4567 4.08882 17.3089 4.94104C18.1612 5.79327 18.7415 6.87907 18.9767 8.06114C19.2118 9.24322 19.0911 10.4685 18.6299 11.582C18.1687 12.6954 17.3876 13.6472 16.3855 14.3167C15.3834 14.9863 14.2052 15.3437 13 15.3437C11.3844 15.3419 9.83553 14.6992 8.69313 13.5569C7.55073 12.4145 6.90812 10.8656 6.90626 9.24998Z" fill="#878383"/>
</svg>
